# xmcd
#
# Track frame offsets: 
#        150
#        17385
#        39066
#        71395
#        93026
#        109108
#        138351
#        152682
#        181141
#        215188
#        252942
#        268245
#        285994
#
# Disc length: 4064 seconds
#
# Revision: 2
# Processed by: cddbd v1.5.2PL0 Copyright (c) Steve Scherf et al.
# Submitted via: ExactAudioCopyFreeDBPlugin 1.0
#
DISCID=a60fde0d
DTITLE=Various Artist - North Sea Jazz Festival 2005
DYEAR=2005
DGENRE=Jazz
TTITLE0=Lizz Wright - A Taste Of Honey
TTITLE1=Jamie Cullum - Next Year Baby
TTITLE2=Dave Holland Big Band - Last Minute Man
TTITLE3=Peter Cincotti - I'd Rather Be With You
TTITLE4=Rita Reys - Under A Blanket Of Blue
TTITLE5=John Scofield - Busted
TTITLE6=Relax - 1930 The Festivities
TTITLE7=David Sanborn - Tin Tin Deo
TTITLE8=Kurt Rosenwinkel - The Cross
TTITLE9=Oscar Peterson - Nighttime
TTITLE10=Cristina Branco - Sete Pedacos De Vento
TTITLE11=Madeleine Peyroux - Dance Me To The End Of Love
TTITLE12=Matt Bianco - Ronnie's Samba
EXTD=YEAR: 2005
EXTT0=
EXTT1=
EXTT2=
EXTT3=
EXTT4=
EXTT5=
EXTT6=
EXTT7=
EXTT8=
EXTT9=
EXTT10=
EXTT11=
EXTT12=
PLAYORDER=
